<?xml version="1.0" encoding="utf-8"?>
<!-- Generator: Adobe Illustrator 27.1.1, SVG Export Plug-In . SVG Version: 6.00 Build 0)  -->
<svg version="1.1" id="Layer_1" xmlns="http://www.w3.org/2000/svg" xmlns:xlink="http://www.w3.org/1999/xlink" x="0px" y="0px"
	 viewBox="0 0 42.7 42.7" style="enable-background:new 0 0 42.7 42.7;" xml:space="preserve">
<style type="text/css">
	.st0{fill:#14B866;}
	.st1{clip-path:url(#SVGID_00000131325987707808019160000004394081548683119250_);}
	.st2{fill:#06371F;}
</style>
<g id="Group_38870" transform="translate(-1678.333 -7403.334)">
	<path id="Path_88861" class="st0" d="M1678.3,7424.7c0-11.8,9.5-21.3,21.3-21.3c0,0,0,0,0,0l0,0c11.8,0,21.3,9.5,21.3,21.3
		c0,0,0,0,0,0l0,0c0,11.8-9.5,21.3-21.3,21.3c0,0,0,0,0,0l0,0C1687.9,7446,1678.3,7436.5,1678.3,7424.7
		C1678.3,7424.7,1678.3,7424.7,1678.3,7424.7z"/>
	<g id="Group_38869" transform="translate(1692 7419)">
		<g>
			<defs>
				<rect id="SVGID_1_" x="0" y="0" width="16" height="12.4"/>
			</defs>
			<clipPath id="SVGID_00000119820697581469352840000015511975718118890123_">
				<use xlink:href="#SVGID_1_"  style="overflow:visible;"/>
			</clipPath>
			
				<g id="Group_38868" transform="translate(0 0)" style="clip-path:url(#SVGID_00000119820697581469352840000015511975718118890123_);">
				<path id="Path_88868" class="st2" d="M13.6,1c-1-0.5-2.2-0.8-3.3-1C10.1,0.3,10,0.6,9.8,0.9c-1.2-0.2-2.4-0.2-3.7,0
					C6,0.6,5.9,0.3,5.7,0C4.6,0.2,3.5,0.5,2.4,1c-1.9,2.7-2.7,6-2.4,9.3c1.2,0.9,2.6,1.6,4,2.1C4.4,11.9,4.7,11.5,5,11
					c-0.5-0.2-0.9-0.4-1.4-0.7C3.7,10.2,3.8,10.1,4,10c2.6,1.2,5.5,1.2,8.1,0c0.1,0.1,0.2,0.2,0.3,0.3c-0.4,0.3-0.9,0.5-1.4,0.7
					c0.2,0.5,0.5,1,0.9,1.4c1.5-0.5,2.8-1.2,4.1-2.1C16.3,7,15.4,3.7,13.6,1 M5.3,8.4C4.5,8.4,3.9,7.7,3.9,6.8
					C3.8,6,4.5,5.2,5.3,5.2c0.8,0.1,1.5,0.8,1.4,1.6c0,0,0,0,0,0C6.8,7.7,6.2,8.4,5.3,8.4 M10.7,8.4C9.8,8.4,9.2,7.7,9.2,6.8
					C9.2,6,9.8,5.2,10.7,5.2c0.8,0,1.5,0.8,1.4,1.6c0,0,0,0,0,0C12.2,7.7,11.5,8.4,10.7,8.4"/>
			</g>
		</g>
	</g>
</g>
</svg>
