<?xml version="1.0" encoding="utf-8"?>
<!-- Generator: Adobe Illustrator 27.1.1, SVG Export Plug-In . SVG Version: 6.00 Build 0)  -->
<svg version="1.1" id="Layer_1" xmlns="http://www.w3.org/2000/svg" xmlns:xlink="http://www.w3.org/1999/xlink" x="0px" y="0px"
	 viewBox="0 0 42.7 42.7" style="enable-background:new 0 0 42.7 42.7;" xml:space="preserve">
<style type="text/css">
	.st0{fill:#14B866;}
	.st1{fill:#06371F;}
</style>
<g id="Group_38874" transform="translate(-1422.333 -7403.334)">
	<path id="Path_9752" class="st0" d="M1422.3,7424.7c0-11.8,9.6-21.3,21.3-21.3l0,0l0,0c11.8,0,21.3,9.6,21.3,21.3l0,0l0,0
		c0,11.8-9.6,21.3-21.3,21.3l0,0l0,0C1431.9,7446,1422.3,7436.4,1422.3,7424.7L1422.3,7424.7z"/>
	<path id="Path_9753" class="st1" d="M1450.8,7416.7h-14.2c-0.5,0-0.9,0.4-0.9,0.9c0,0,0,0,0,0v14.2c0,0.5,0.4,0.9,0.9,0.9
		c0,0,0,0,0,0h7.7v-6.2h-2.1v-2.4h2.1v-1.8c-0.2-1.6,1-3,2.6-3.2c0.2,0,0.3,0,0.5,0c0.6,0,1.2,0,1.9,0.1v2.1h-1.3
		c-1,0-1.2,0.5-1.2,1.2v1.5h2.4l-0.3,2.4h-2.1v6.2h4.1c0.5,0,0.9-0.4,0.9-0.9c0,0,0,0,0,0v-14.2
		C1451.7,7417.1,1451.3,7416.7,1450.8,7416.7C1450.8,7416.7,1450.8,7416.7,1450.8,7416.7L1450.8,7416.7z"/>
</g>
</svg>
