<?xml version="1.0" encoding="utf-8"?>
<!-- Generator: Adobe Illustrator 27.1.1, SVG Export Plug-In . SVG Version: 6.00 Build 0)  -->
<svg version="1.1" id="Layer_1" xmlns="http://www.w3.org/2000/svg" xmlns:xlink="http://www.w3.org/1999/xlink" x="0px" y="0px"
	 viewBox="0 0 42.7 42.7" style="enable-background:new 0 0 42.7 42.7;" xml:space="preserve">
<style type="text/css">
	.st0{fill:#14B866;}
	.st1{clip-path:url(#SVGID_00000168083963955601693190000010542964894717385386_);}
	.st2{fill:#0A0A08;}
	.st3{fill:#06371F;}
</style>
<g id="Group_38872" transform="translate(-1550.333 -7403.334)">
	<path id="Path_9756" class="st0" d="M1550.3,7424.7c0-11.8,9.5-21.3,21.3-21.3c0,0,0,0,0,0l0,0c11.8,0,21.3,9.5,21.3,21.3
		c0,0,0,0,0,0l0,0c0,11.8-9.5,21.3-21.3,21.3c0,0,0,0,0,0l0,0C1559.9,7446,1550.3,7436.5,1550.3,7424.7
		C1550.3,7424.7,1550.3,7424.7,1550.3,7424.7z"/>
	<g id="Group_38867" transform="translate(1564 7417)">
		<g>
			<defs>
				<rect id="SVGID_1_" x="0" y="0" width="16" height="16"/>
			</defs>
			<clipPath id="SVGID_00000071550969134782106600000000940875373042724537_">
				<use xlink:href="#SVGID_1_"  style="overflow:visible;"/>
			</clipPath>
			<g id="Group_38866" style="clip-path:url(#SVGID_00000071550969134782106600000000940875373042724537_);">
				<path id="Path_88863" class="st2" d="M8,1.4c2.1,0,2.4,0,3.2,0c0.5,0,1,0.1,1.5,0.3C13.4,2,14,2.6,14.2,3.3
					c0.2,0.5,0.3,1,0.3,1.5c0,0.8,0,1.1,0,3.2s0,2.4,0,3.2c0,0.5-0.1,1-0.3,1.5c-0.3,0.7-0.8,1.2-1.5,1.5c-0.5,0.2-1,0.3-1.5,0.3
					c-0.8,0-1.1,0-3.2,0s-2.4,0-3.2,0c-0.5,0-1-0.1-1.5-0.3C2.6,14,2,13.4,1.8,12.7c-0.2-0.5-0.3-1-0.3-1.5c0-0.8,0-1.1,0-3.2
					s0-2.4,0-3.2c0-0.5,0.1-1,0.3-1.5C2,2.6,2.6,2,3.3,1.8c0.5-0.2,1-0.3,1.5-0.3C5.6,1.4,5.9,1.4,8,1.4"/>
				<path id="Path_88864" class="st3" d="M8,0C5.8,0,5.6,0,4.7,0C4,0.1,3.4,0.2,2.8,0.4c-0.5,0.2-1,0.5-1.4,0.9
					C0.9,1.7,0.6,2.2,0.4,2.8C0.2,3.4,0.1,4,0,4.7C0,5.6,0,5.8,0,8s0,2.4,0,3.3c0,0.7,0.1,1.3,0.4,1.9c0.2,0.5,0.5,1,0.9,1.4
					c0.4,0.4,0.9,0.7,1.4,0.9C3.4,15.8,4,15.9,4.7,16c0.9,0,1.1,0,3.3,0s2.4,0,3.3,0c0.7,0,1.3-0.1,1.9-0.4c1.1-0.4,1.9-1.3,2.3-2.3
					c0.2-0.6,0.4-1.3,0.4-1.9c0-0.9,0-1.1,0-3.3s0-2.4,0-3.3c0-0.7-0.1-1.3-0.4-1.9c-0.2-0.5-0.5-1-0.9-1.4
					c-0.4-0.4-0.9-0.7-1.4-0.9C12.6,0.2,12,0.1,11.3,0C10.4,0,10.2,0,8,0"/>
				<path id="Path_88865" class="st0" d="M8,3.9C5.7,3.9,3.9,5.7,3.9,8c0,2.3,1.8,4.1,4.1,4.1c2.3,0,4.1-1.8,4.1-4.1S10.3,3.9,8,3.9
					C8,3.9,8,3.9,8,3.9"/>
				<path id="Path_88866" class="st3" d="M8,10.7c-1.5,0-2.7-1.2-2.7-2.7S6.5,5.3,8,5.3s2.7,1.2,2.7,2.7c0,0,0,0,0,0
					C10.7,9.5,9.5,10.7,8,10.7"/>
				<path id="Path_88867" class="st0" d="M13.2,3.7c0,0.5-0.4,1-1,1c-0.5,0-1-0.4-1-1c0-0.5,0.4-1,1-1S13.2,3.2,13.2,3.7
					C13.2,3.7,13.2,3.7,13.2,3.7"/>
			</g>
		</g>
	</g>
</g>
</svg>
