<?xml version="1.0" encoding="utf-8"?>
<!-- Generator: Adobe Illustrator 27.1.1, SVG Export Plug-In . SVG Version: 6.00 Build 0)  -->
<svg version="1.1" id="Layer_1" xmlns="http://www.w3.org/2000/svg" xmlns:xlink="http://www.w3.org/1999/xlink" x="0px" y="0px"
	 viewBox="0 0 42.7 42.7" style="enable-background:new 0 0 42.7 42.7;" xml:space="preserve">
<style type="text/css">
	.st0{fill:#14B866;}
	.st1{clip-path:url(#SVGID_00000164481658092929081910000001048638991927021184_);}
	.st2{fill:#06371F;}
</style>
<g id="Group_39047" transform="translate(-1806.333 -7403.334)">
	<path id="Path_88861" class="st0" d="M1806.3,7424.7c0-11.8,9.5-21.3,21.3-21.3c0,0,0,0,0,0l0,0c11.8,0,21.3,9.5,21.3,21.3
		c0,0,0,0,0,0l0,0c0,11.8-9.5,21.3-21.3,21.3c0,0,0,0,0,0l0,0C1815.9,7446,1806.3,7436.5,1806.3,7424.7
		C1806.3,7424.7,1806.3,7424.7,1806.3,7424.7z"/>
	<g id="Group_39046" transform="translate(1820 7417)">
		<g>
			<defs>
				<rect id="SVGID_1_" x="0" y="0" width="16" height="16"/>
			</defs>
			<clipPath id="SVGID_00000066484005557670984990000004811881313541432752_">
				<use xlink:href="#SVGID_1_"  style="overflow:visible;"/>
			</clipPath>
			<g id="Group_39045" style="clip-path:url(#SVGID_00000066484005557670984990000004811881313541432752_);">
				<path id="Path_89607" class="st2" d="M8.3,8l6.6-4.1c-0.2-0.4-0.6-0.6-1.1-0.6H2.3c-0.4,0-0.9,0.2-1.1,0.6L7.8,8
					C7.9,8.1,8.2,8.1,8.3,8"/>
				<path id="Path_89608" class="st2" d="M8.1,9C7.8,9,7.5,9,7.3,8.8L1.1,4.9v6.6c0,0.7,0.6,1.2,1.2,1.2h11.5c0.7,0,1.2-0.6,1.2-1.2
					V4.9L8.9,8.8C8.6,9,8.3,9,8.1,9"/>
			</g>
		</g>
	</g>
</g>
</svg>
