<?xml version="1.0" encoding="utf-8"?>
<!-- Generator: Adobe Illustrator 27.1.1, SVG Export Plug-In . SVG Version: 6.00 Build 0)  -->
<svg version="1.1" id="Layer_1" xmlns="http://www.w3.org/2000/svg" xmlns:xlink="http://www.w3.org/1999/xlink" x="0px" y="0px"
	 viewBox="0 0 42.7 42.7" style="enable-background:new 0 0 42.7 42.7;" xml:space="preserve">
<style type="text/css">
	.st0{fill:#14B866;}
	.st1{fill:#06371F;}
</style>
<g id="Group_38871" transform="translate(-1614.333 -7403.334)">
	<path id="Path_9758" class="st0" d="M1614.3,7424.7c0-11.8,9.5-21.3,21.3-21.3c0,0,0,0,0,0l0,0c11.8,0,21.3,9.5,21.3,21.3
		c0,0,0,0,0,0l0,0c0,11.8-9.5,21.3-21.3,21.3c0,0,0,0,0,0l0,0C1623.9,7446,1614.3,7436.5,1614.3,7424.7
		C1614.3,7424.7,1614.3,7424.7,1614.3,7424.7z"/>
	<path id="Path_9759" class="st1" d="M1644.2,7420.4c-0.1-0.4-0.3-0.7-0.6-1c-0.3-0.3-0.6-0.5-1-0.6c-4.6-0.5-9.3-0.5-13.9,0
		c-0.4,0.1-0.7,0.3-1,0.6c-0.3,0.3-0.5,0.6-0.6,1c-0.5,2.8-0.5,5.7,0,8.6c0.1,0.4,0.3,0.7,0.6,1c0.3,0.3,0.6,0.5,1,0.6
		c4.6,0.5,9.3,0.5,13.9,0c0.4-0.1,0.7-0.3,1-0.6c0.3-0.3,0.5-0.6,0.6-1C1644.7,7426.1,1644.7,7423.2,1644.2,7420.4z M1633.9,7427.3
		v-5.3l4.6,2.7L1633.9,7427.3z"/>
</g>
</svg>
